<svg xmlns="http://www.w3.org/2000/svg" enable-background="new 0 0 3000 3000" viewBox="0 0 3000 3000"><ellipse cx="392.5" cy="2492.4" fill="#eee" class="coloreeeeee svgShape" rx="367.5" ry="28.1"/><polygon fill="#5fff7f" points="2975 2558.8 2435.4 2558.8 593.8 1499.5 2435.4 441.2 2975 441.2 2856.6 1517.1" class="colorffba5f svgShape"/><polygon fill="#26ff51" points="593.8 1499.5 2975 441.2 2975 2558.8" class="colorffa726 svgShape"/><polygon fill="#9bf7ad" points="444 2446.4 403.1 2445.4 404.6 2380.9 445.5 2381.9" class="colorf7c19b svgShape"/><path fill="#333" d="M405.9,2456.2l-6.1,8.3l-1.6,2.7c-1,1.6-1.4,3.4-1.4,5.3l0.1,7.2c0,1.8,1.5,3.2,3.2,3.2l7.8-0.2l0-2
					l4.2-0.1l0,2l9.4,0l0-1.7l4.4-0.1l0,1.8l10.5-0.3l5.3-7.2c8.4,2.3,16,5.2,22.5,8.9c0.3,0.2,10.9,0.1,11-0.2l0-1.6l4.1-0.1l0,1.6
					c3.4,0.2,6.8,0.1,10.1-0.2l0-1.7l4-0.1l0,1.4c3.6-0.1,6.7-0.5,9.4-1.4l0-1.3l4-0.6l0,1.2c2.4-0.4,4.6-1.1,6.6-2l-0.2-1.4
					l3.6-1.6l0.8,1.3c3.9-1.7,7.4-3.5,10.5-5.4c0,0,0.5-5.5-2.8-5.7l-42.8-3.9l-55-6.6L405.9,2456.2z" class="color333333 svgShape"/><path fill="#585b59" d="M397.9,2452.4c0.1,2.7,0.4,5.4,1,8l1,4.1c16.4-0.6,31.8,0.3,45.5,3.6c2.9,0.7,5.6,1.5,8.4,2.3
					c23.3,7.7,47.2,5.9,71.7-4.2l-0.1-3.9c-0.1-2.9-2.1-5.4-4.9-5.9L502,2453c-3.3-0.6-6.6-1.1-9.8-1.7c-9.2-1.6-17.8-5.1-25.8-10.4
					c-0.4-0.3-0.9-0.6-1.3-0.9c-0.3-0.2-0.5-0.4-0.8-0.5c-0.4,4.1-4.2,9.2-4.4,9.5c-0.1,0.2-0.3,0.2-0.5,0.2c-0.1,0-0.2,0-0.3-0.1
					c-0.2-0.2-0.3-0.5-0.1-0.7c1.3-1.8,4.2-6.4,4.2-9.6c-0.2-0.1-0.4-0.3-0.6-0.4c-3.2-0.8-8.6,0.6-10.8,1.3
					c-0.3,0.1-0.6-0.1-0.6-0.3c-0.1-0.3,0.1-0.6,0.3-0.7c0.3-0.1,5.3-1.9,9.5-1.6c-0.6-0.5-1.3-1-1.9-1.6c-0.4-0.3-0.8-0.7-1.2-1
					c-0.9-0.7-1.7-1.5-2.6-2.3c-0.3-0.3-0.7-0.6-1-1c-1.2-1.2-2.5-2.4-3.7-3.7c-2.6,0.3-5.8,2.2-7.2,3.1c-0.2,0.2-0.6,0.1-0.7-0.1
					c-0.2-0.2-0.1-0.6,0.1-0.7c0.2-0.1,3.7-2.6,6.9-3.2c-0.5-0.5-1-1-1.4-1.6c-0.8-0.9-1.9-1.4-3.1-1.4l-42.7-0.7
					c-1.6,0-2.8,1.3-2.7,2.9l0.3,5.1c0.2,3.8-0.2,7.6-1.1,11.3C398.2,2445.6,397.8,2449,397.9,2452.4z" class="color58595b svgShape"/><path fill="#1f2320" d="M459.2,2449.1c0.1,0.1,0.2,0.1,0.3,0.1c0.2,0,0.4-0.1,0.5-0.2c0.2-0.3,3.9-5.4,4.4-9.5
					c-0.3-0.2-0.7-0.5-1-0.7c0,3.1-2.9,7.8-4.2,9.6C458.9,2448.6,459,2448.9,459.2,2449.1z" class="color231f20 svgShape"/><path fill="#1f2320" d="M451.3,2439.4c0.1,0.3,0.4,0.4,0.6,0.3c2.2-0.8,7.6-2.2,10.8-1.3c-0.6-0.4-1.1-0.9-1.7-1.3
					c-4.1-0.2-9.2,1.5-9.5,1.6C451.3,2438.8,451.2,2439.1,451.3,2439.4z" class="color231f20 svgShape"/><path fill="#303030" d="M442.7,2430.5c0.2,0.2,0.5,0.3,0.7,0.1c1.4-1,4.6-2.9,7.2-3.1c-0.3-0.3-0.6-0.6-0.9-0.9
					c-3.2,0.6-6.7,3-6.9,3.2C442.6,2430,442.5,2430.3,442.7,2430.5z" class="color303030 svgShape"/><path fill="#404240" d="M397.9,2452.4c0.1,2.7,0.4,5.4,1,8l1,4.1c16.4-0.6,31.8,0.3,45.5,3.6l20.8-15.4c1.2-0.9,1.4-2.6,0.4-3.8
					l-21.3-25.4l-42.7-0.7c-1.6,0-2.8,1.3-2.7,2.9l0.3,5.1c0.2,3.8-0.2,7.6-1.1,11.3C398.2,2445.6,397.8,2449,397.9,2452.4z" class="color414042 svgShape"/><polygon fill="#585b59" points="444.5 2425.6 444.8 2425.3 444.6 2425 444.1 2425 444.1 2425.5 444.3 2425.5" class="color58595b svgShape"/><path fill="#585b59" d="M400.8,2461.6l0.4-0.1l0.1,0.6l-0.4,0.1L400.8,2461.6z M400.5,2460.3l0.4-0.1l0.1,0.6l-0.4,0.1
								L400.5,2460.3z M400.2,2459.1l0.4-0.1c0,0.2,0.1,0.4,0.1,0.6l-0.4,0.1C400.3,2459.5,400.2,2459.3,400.2,2459.1z M400,2457.8
								l0.5-0.1c0,0.2,0.1,0.4,0.1,0.6l-0.5,0.1C400,2458.3,400,2458,400,2457.8z M399.8,2456.6l0.5-0.1c0,0.2,0.1,0.4,0.1,0.6
								l-0.5,0.1C399.8,2457,399.8,2456.8,399.8,2456.6z M399.6,2455.3l0.5,0c0,0.2,0,0.4,0.1,0.6l-0.5,0.1
								C399.7,2455.7,399.7,2455.5,399.6,2455.3z M399.5,2454.1l0.5,0c0,0.2,0,0.4,0,0.6l-0.5,0
								C399.6,2454.5,399.5,2454.3,399.5,2454.1z M399.5,2452.8l0.5,0c0,0.2,0,0.4,0,0.6l-0.5,0
								C399.5,2453.2,399.5,2453,399.5,2452.8z M399.4,2452.2c0-0.2,0-0.4,0-0.6h0.5c0,0.2,0,0.4,0,0.6L399.4,2452.2z M399.4,2450.9
								c0-0.2,0-0.4,0-0.6l0.5,0c0,0.2,0,0.4,0,0.6L399.4,2450.9z M399.5,2449.6c0-0.2,0-0.4,0-0.6l0.5,0c0,0.2,0,0.4,0,0.6
								L399.5,2449.6z M399.6,2448.3c0-0.2,0-0.4,0.1-0.6l0.5,0c0,0.2,0,0.4-0.1,0.6L399.6,2448.3z M399.7,2447.1
								c0-0.2,0.1-0.4,0.1-0.6l0.5,0.1c0,0.2-0.1,0.4-0.1,0.6L399.7,2447.1z M399.9,2445.8c0-0.2,0.1-0.4,0.1-0.6l0.5,0.1
								c0,0.2-0.1,0.4-0.1,0.6L399.9,2445.8z M400.1,2444.6c0-0.2,0.1-0.4,0.1-0.6l0.4,0.1c0,0.2-0.1,0.4-0.1,0.6L400.1,2444.6z
								 M400.4,2443.3c0-0.2,0.1-0.4,0.1-0.6l0.4,0.1c0,0.2-0.1,0.4-0.1,0.6L400.4,2443.3z M400.6,2442.1c0-0.2,0.1-0.4,0.1-0.6
								l0.4,0.1c0,0.2-0.1,0.4-0.1,0.6L400.6,2442.1z M400.9,2440.9c0-0.2,0.1-0.4,0.1-0.6l0.5,0.1c0,0.2-0.1,0.4-0.1,0.6
								L400.9,2440.9z M401.1,2439.6c0-0.2,0.1-0.4,0.1-0.6l0.5,0.1c0,0.2-0.1,0.4-0.1,0.6L401.1,2439.6z M401.3,2438.4
								c0-0.2,0.1-0.4,0.1-0.6l0.5,0.1c0,0.2-0.1,0.4-0.1,0.6L401.3,2438.4z M401.5,2437.2c0-0.2,0-0.4,0.1-0.6l0.5,0
								c0,0.2,0,0.4-0.1,0.6L401.5,2437.2z M401.6,2435.9c0-0.2,0-0.4,0-0.6l0.5,0c0,0.2,0,0.4,0,0.6L401.6,2435.9z M401.7,2434.7
								c0-0.2,0-0.4,0-0.6l0.5,0c0,0.2,0,0.4,0,0.6L401.7,2434.7z M401.7,2433.4c0-0.2,0-0.4,0-0.6l0.5,0c0,0.2,0,0.4,0,0.6
								L401.7,2433.4z M401.7,2431.5l0.5,0c0,0.2,0,0.4,0,0.6l-0.5,0C401.7,2431.9,401.7,2431.7,401.7,2431.5z M401.6,2430.3l0.5,0
								l0,0.6l-0.5,0L401.6,2430.3z M401.5,2429l0.5,0l0,0.6l-0.5,0L401.5,2429z M401.5,2427.7l0.5,0l0,0.6l-0.5,0L401.5,2427.7z
								 M401.4,2426.5l0.5,0l0,0.6l-0.5,0L401.4,2426.5z M442.9,2425.5l0-0.5l0.6,0l0,0.5L442.9,2425.5z M441.7,2425.4l0-0.5l0.6,0
								l0,0.5L441.7,2425.4z M440.4,2425.4l0-0.5l0.6,0l0,0.5L440.4,2425.4z M439.2,2425.4l0-0.5l0.6,0l0,0.5L439.2,2425.4z
								 M438,2425.4l0-0.5l0.6,0l0,0.5L438,2425.4z M436.7,2425.3l0-0.5l0.6,0l0,0.5L436.7,2425.3z M435.5,2425.3l0-0.5l0.6,0l0,0.5
								L435.5,2425.3z M434.3,2425.3l0-0.5l0.6,0l0,0.5L434.3,2425.3z M433,2425.3l0-0.5l0.6,0l0,0.5L433,2425.3z M431.8,2425.3
								l0-0.5l0.6,0l-0.1,0.5L431.8,2425.3z M401.4,2425.8c0-0.2,0.1-0.5,0.2-0.7l0.4,0.2c-0.1,0.2-0.1,0.3-0.2,0.5L401.4,2425.8z
								 M430.6,2425.2l0-0.5l0.6,0l0,0.5L430.6,2425.2z M429.3,2425.2l0-0.5l0.6,0l0,0.5L429.3,2425.2z M428.1,2425.2l0-0.5l0.6,0
								l-0.1,0.5L428.1,2425.2z M426.9,2425.2l0-0.5l0.6,0l-0.1,0.5L426.9,2425.2z M425.6,2425.2l0-0.5l0.6,0l0,0.5L425.6,2425.2z
								 M424.4,2425.1l0-0.5l0.6,0l0,0.5L424.4,2425.1z M423.2,2425.1l0-0.5l0.6,0l0,0.5L423.2,2425.1z M421.9,2425.1l0-0.5l0.6,0
								l0,0.5L421.9,2425.1z M420.7,2425.1l0-0.5l0.6,0l0,0.5L420.7,2425.1z M419.5,2425l0-0.5l0.6,0l0,0.5L419.5,2425z M418.2,2425
								l0-0.5l0.6,0l0,0.5L418.2,2425z M417,2425l0-0.5l0.6,0l0,0.5L417,2425z M415.8,2425l0-0.5l0.6,0l0,0.5L415.8,2425z
								 M414.5,2425l0-0.5l0.6,0l0,0.5L414.5,2425z M413.3,2424.9l0-0.5l0.6,0l0,0.5L413.3,2424.9z M412.1,2424.9l0-0.5l0.6,0l0,0.5
								L412.1,2424.9z M410.8,2424.9l0-0.5l0.6,0l0,0.5L410.8,2424.9z M409.6,2424.9l0-0.5l0.6,0l0,0.5L409.6,2424.9z M408.4,2424.9
								l0-0.5l0.6,0l0,0.5L408.4,2424.9z M402.1,2424.6c0.2-0.1,0.4-0.2,0.7-0.3l0.1,0.5c-0.2,0-0.3,0.1-0.5,0.2L402.1,2424.6z
								 M407.1,2424.8l0-0.5l0.6,0l0,0.5L407.1,2424.8z M405.9,2424.8l0-0.5l0.6,0l0,0.5L405.9,2424.8z M404.7,2424.8l0-0.5l0.6,0
								l0,0.5L404.7,2424.8z M403.4,2424.8l0-0.5l0.6,0l0,0.5L403.4,2424.8z" class="color58595b svgShape"/><polygon fill="#585b59" points="401.1 2463.2 401.6 2463.2 401.6 2462.7 401.5 2462.7 401.5 2462.6 401 2462.7" class="color58595b svgShape"/><path fill="#585b59" d="M443.3,2466.3l0.1-0.5l0.6,0.1l-0.1,0.5L443.3,2466.3z M442.1,2466.1l0.1-0.5l0.6,0.1l-0.1,0.5
								L442.1,2466.1z M440.9,2465.8l0.1-0.5l0.6,0.1l-0.1,0.5L440.9,2465.8z M439.7,2465.6l0.1-0.5l0.6,0.1l-0.1,0.5L439.7,2465.6z
								 M438.6,2465.4l0.1-0.5l0.6,0.1l-0.1,0.5L438.6,2465.4z M437.4,2465.2l0.1-0.5l0.6,0.1l-0.1,0.5L437.4,2465.2z M436.2,2465
								l0.1-0.5l0.6,0.1l-0.1,0.5L436.2,2465z M435,2464.8l0.1-0.5l0.6,0.1l-0.1,0.5L435,2464.8z M433.8,2464.6l0.1-0.5l0.6,0.1
								l-0.1,0.5L433.8,2464.6z M432.6,2464.4l0.1-0.5l0.6,0.1l-0.1,0.5L432.6,2464.4z M431.3,2464.3l0.1-0.5l0.6,0.1l-0.1,0.5
								L431.3,2464.3z M430.1,2464.1l0.1-0.5l0.6,0.1l-0.1,0.5L430.1,2464.1z M428.9,2464l0-0.5l0.6,0.1l0,0.5L428.9,2464z
								 M427.7,2463.9l0-0.5l0.6,0.1l0,0.5L427.7,2463.9z M426.5,2463.8l0-0.5l0.6,0.1l0,0.5L426.5,2463.8z M425.3,2463.7l0-0.5
								l0.6,0.1l0,0.5L425.3,2463.7z M424.1,2463.6l0-0.5l0.6,0l0,0.5L424.1,2463.6z M422.9,2463.5l0-0.5l0.6,0l0,0.5L422.9,2463.5z
								 M421.7,2463.4l0-0.5l0.6,0l0,0.5L421.7,2463.4z M420.5,2463.3l0-0.5l0.6,0l0,0.5L420.5,2463.3z M419.2,2463.3l0-0.5l0.6,0
								l0,0.5L419.2,2463.3z M418,2463.2l0-0.5l0.6,0l0,0.5L418,2463.2z M416.8,2463.2l0-0.5l0.6,0l0,0.5L416.8,2463.2z
								 M415.6,2463.1l0-0.5l0.6,0l0,0.5L415.6,2463.1z M414.4,2463.1l0-0.5l0.6,0l0,0.5L414.4,2463.1z M413.2,2463.1l0-0.5l0.6,0
								l0,0.5L413.2,2463.1z M412,2463.1l0-0.5l0.6,0l0,0.5L412,2463.1z M410.8,2463.1l0-0.5l0.6,0l0,0.5L410.8,2463.1z
								 M409.5,2463.1v-0.5l0.6,0l0,0.5H409.5z M408.3,2463.1l0-0.5l0.6,0l0,0.5L408.3,2463.1z M407.1,2463.1l0-0.5l0.6,0l0,0.5
								L407.1,2463.1z M402.2,2462.7l0.6,0l0,0.5l-0.6,0L402.2,2462.7z M405.9,2463.1l0-0.5l0.6,0l0,0.5L405.9,2463.1z
								 M403.5,2462.7l0.6,0l0,0.5l-0.6,0L403.5,2462.7z M404.7,2463.1l0-0.5l0.6,0l0,0.5L404.7,2463.1z" class="color58595b svgShape"/><polygon fill="#585b59" points="444.9 2466.7 445.2 2466.4 445 2466 444.8 2466.2 444.6 2466.1 444.5 2466.6" class="color58595b svgShape"/><path fill="#585b59" d="M445.5,2465.7l0.5-0.4l0.3,0.4l-0.5,0.4L445.5,2465.7z M446.4,2464.9l0.5-0.4l0.3,0.4l-0.5,0.4
								L446.4,2464.9z M447.4,2464.2l0.5-0.4l0.3,0.4l-0.5,0.4L447.4,2464.2z M448.4,2463.5l0.5-0.4l0.3,0.4l-0.5,0.4L448.4,2463.5z
								 M449.4,2462.8l0.5-0.4l0.3,0.4l-0.5,0.4L449.4,2462.8z M450.4,2462l0.5-0.4l0.3,0.4l-0.5,0.4L450.4,2462z M451.4,2461.3
								l0.5-0.4l0.3,0.4l-0.5,0.4L451.4,2461.3z M452.4,2460.6l0.5-0.4l0.3,0.4l-0.5,0.4L452.4,2460.6z M453.3,2459.8l0.5-0.4
								l0.3,0.4l-0.5,0.4L453.3,2459.8z M454.3,2459.1l0.5-0.4l0.3,0.4l-0.5,0.4L454.3,2459.1z M455.3,2458.4l0.5-0.4l0.3,0.4
								l-0.5,0.4L455.3,2458.4z M456.3,2457.7l0.5-0.4l0.3,0.4l-0.5,0.4L456.3,2457.7z M457.3,2456.9l0.5-0.4l0.3,0.4l-0.5,0.4
								L457.3,2456.9z M458.3,2456.2l0.5-0.4l0.3,0.4l-0.5,0.4L458.3,2456.2z M459.3,2455.5l0.5-0.4l0.3,0.4l-0.5,0.4L459.3,2455.5z
								 M460.2,2454.8l0.5-0.4l0.3,0.4l-0.5,0.4L460.2,2454.8z M461.2,2454l0.5-0.4l0.3,0.4l-0.5,0.4L461.2,2454z M462.2,2453.3
								l0.5-0.4l0.3,0.4l-0.5,0.4L462.2,2453.3z M463.2,2452.6l0.5-0.4l0.3,0.4l-0.5,0.4L463.2,2452.6z M464.2,2451.8l0.5-0.4
								l0.3,0.4l-0.5,0.4L464.2,2451.8z M465,2451.1c0.1-0.1,0.1-0.2,0.1-0.4c0,0,0-0.1,0-0.1l0.5,0c0,0.1,0,0.1,0,0.2
								c0,0.2-0.1,0.4-0.2,0.6L465,2451.1z M464.9,2449.9l-0.2-0.2l0.3-0.3l0.2,0.2c0.1,0.1,0.2,0.2,0.2,0.3l-0.4,0.2
								C465,2450,464.9,2450,464.9,2449.9z M463.9,2448.7l0.3-0.3l0.4,0.5l-0.3,0.3L463.9,2448.7z M463.1,2447.8l0.3-0.3l0.4,0.5
								l-0.3,0.3L463.1,2447.8z M462.3,2446.8l0.3-0.3l0.4,0.5l-0.3,0.3L462.3,2446.8z M461.5,2445.9l0.3-0.3l0.4,0.5l-0.3,0.3
								L461.5,2445.9z M460.7,2445l0.3-0.3l0.4,0.5l-0.3,0.3L460.7,2445z M459.9,2444l0.3-0.3l0.4,0.5l-0.3,0.3L459.9,2444z
								 M459.1,2443.1l0.3-0.3l0.4,0.5l-0.3,0.3L459.1,2443.1z M458.4,2442.1l0.3-0.3l0.4,0.5l-0.3,0.3L458.4,2442.1z M457.6,2441.2
								l0.3-0.3l0.4,0.5l-0.3,0.3L457.6,2441.2z M456.8,2440.2l0.3-0.3l0.4,0.5l-0.3,0.3L456.8,2440.2z M456,2439.3l0.3-0.3l0.4,0.5
								l-0.3,0.3L456,2439.3z M455.2,2438.4l0.3-0.3l0.4,0.5l-0.3,0.3L455.2,2438.4z M454.4,2437.4l0.3-0.3l0.4,0.5l-0.3,0.3
								L454.4,2437.4z M453.6,2436.5l0.3-0.3l0.4,0.5l-0.3,0.3L453.6,2436.5z M452.8,2435.5l0.3-0.3l0.4,0.5l-0.3,0.3L452.8,2435.5z
								 M452,2434.6l0.3-0.3l0.4,0.5l-0.3,0.3L452,2434.6z M451.2,2433.6l0.3-0.3l0.4,0.5l-0.3,0.3L451.2,2433.6z M450.4,2432.7
								l0.3-0.3l0.4,0.5l-0.3,0.3L450.4,2432.7z M449.6,2431.8l0.3-0.3l0.4,0.5l-0.3,0.3L449.6,2431.8z M448.8,2430.8l0.3-0.3
								l0.4,0.5l-0.3,0.3L448.8,2430.8z M448,2429.9l0.3-0.3l0.4,0.5l-0.3,0.3L448,2429.9z M447.3,2428.9l0.3-0.3l0.4,0.5l-0.3,0.3
								L447.3,2428.9z M446.5,2428l0.3-0.3l0.4,0.5l-0.3,0.3L446.5,2428z M445.7,2427.1l0.3-0.3l0.4,0.5l-0.3,0.3L445.7,2427.1z
								 M444.9,2426.1l0.3-0.3l0.4,0.5l-0.3,0.3L444.9,2426.1z" class="color58595b svgShape"/><g fill="#08120a" class="color000000 svgShape"><path fill="#e6e8e6" d="M457,2448.4c0.1-1.3,1.3-2.3,2.6-2.2c1.3,0.1,2.2,1.3,2.1,2.7c-0.1,1.3-1.3,2.3-2.6,2.2
								C457.8,2450.9,456.8,2449.7,457,2448.4z M457.7,2448.5c-0.1,0.9,0.6,1.7,1.5,1.8c0.9,0.1,1.7-0.6,1.8-1.5
								c0.1-0.9-0.6-1.7-1.5-1.8C458.6,2446.9,457.8,2447.5,457.7,2448.5z" class="colore6e7e8 svgShape"/><path fill="#e6e8e6" d="M448.9,2439.4c0.1-1.3,1.3-2.3,2.6-2.2c1.3,0.1,2.2,1.3,2.1,2.7c-0.1,1.3-1.3,2.3-2.6,2.2
								C449.7,2441.9,448.7,2440.7,448.9,2439.4z M449.6,2439.5c-0.1,0.9,0.6,1.7,1.5,1.8c0.9,0.1,1.7-0.6,1.8-1.5
								c0.1-0.9-0.6-1.7-1.5-1.8C450.5,2437.9,449.7,2438.6,449.6,2439.5z" class="colore6e7e8 svgShape"/><g class="color000000 svgShape"><path fill="#1f2320" d="M459.1,2448.3c-0.2,0.2-0.1,0.6,0.1,0.7c0.1,0.1,0.2,0.1,0.3,0.1c0.2,0,0.4-0.1,0.5-0.2
								c0.2-0.3,3.9-5.4,4.4-9.5c0-0.1,0-0.3,0-0.4c0-0.4,0-0.9-0.1-1.3c-0.1-0.5-0.2-0.9-0.4-1.3c-0.9-1.6-2.9-2.3-5.9-2.1
								c0.4,0.4,0.8,0.7,1.2,1c1.9,0,3.2,0.6,3.8,1.6c0,0.1,0.1,0.2,0.1,0.3c0.1,0.3,0.2,0.7,0.2,1.2c0,0.1,0,0.2,0,0.2
								C463.3,2441.9,460.4,2446.5,459.1,2448.3z" class="color231f20 svgShape"/><path fill="#1f2320" d="M451.3,2439.4c0.1,0.3,0.4,0.4,0.6,0.3c2.2-0.8,7.6-2.2,10.8-1.3c0.2,0,0.4,0.1,0.5,0.2
								c0.4,0.1,0.7,0.3,1,0.6c0.1,0.1,0.2,0.2,0.3,0.3c0.2,0.2,0.3,0.4,0.4,0.6c0.4,0.3,0.9,0.6,1.3,0.9c-0.1-0.9-0.4-1.6-0.9-2.2
								c-0.3-0.4-0.7-0.7-1.2-0.9c-0.4-0.2-0.8-0.3-1.2-0.5c-0.6-0.2-1.3-0.3-2-0.3c-4.1-0.2-9.2,1.5-9.5,1.6
								C451.3,2438.8,451.2,2439.1,451.3,2439.4z" class="color231f20 svgShape"/></g></g><g fill="#08120a" class="color000000 svgShape"><path fill="#e6e8e6" d="M440.8,2430.3c0-1.3,1-2.4,2.3-2.5s2.4,1,2.4,2.4c0,1.3-1,2.4-2.3,2.5
							C441.9,2432.7,440.8,2431.6,440.8,2430.3z M441.5,2430.3c0,0.9,0.8,1.7,1.7,1.6c0.9,0,1.6-0.8,1.6-1.7c0-0.9-0.8-1.7-1.7-1.6
							C442.2,2428.6,441.5,2429.3,441.5,2430.3z" class="colore6e7e8 svgShape"/><path fill="#1f2320" d="M442.7,2430.5c0.2,0.2,0.5,0.3,0.7,0.1c1.4-1,4.6-2.9,7.2-3.1c0.9-0.1,1.7,0,2.3,0.4
							c0.9,0.5,1.4,1.6,1.4,3.3c0.3,0.3,0.7,0.6,1,1c0.1-2.6-0.6-4.3-1.9-5.2c-1-0.6-2.3-0.7-3.7-0.4c-3.2,0.6-6.7,3-6.9,3.2
							C442.6,2430,442.5,2430.3,442.7,2430.5z" class="color231f20 svgShape"/></g><path fill="#9bf7ad" d="M319.5,1604.7c-15.3,31.5-31.2,29.6-47.6-3.9l-3.3-34.7l45.4-0.1L319.5,1604.7z" class="colorf7c19b svgShape"/><path fill="#9bf7ad" d="M334.4,1496.6c0,0,19.9,45.3,7.3,73.3c-6.5,14.5-22.8,21.4-37.6,16.4c-11.3-3.8-28.1-11.6-42-26.7
			c-1.2-1.3-1.6-43.8-1.6-43.8l8.6-15.2l37.1-8.5L334.4,1496.6z" class="colorf7c19b svgShape"/><path fill="#333" d="M298,1538.5l-7.1-15.9c0,0,5.1,1.5,11.1,1.9c8.8,0.6,16.4-6.3,17-15.3l0.1-2.2c0,0,38.1-5.4,21-39.2
			c-2.2-4.3-6.2-7.3-10.8-8.3c-8-1.7-21.9-1.5-39.4,11.1c-5.1,3.7-11.9,3.3-17.9,1.6c-6.5-1.9-16.1-0.7-21,18.9
			c-0.9,3.4-2.2,6.7-4.1,9.6c-5.4,8.6-20.9,40,20.7,72.1c1.2,0.9,2.8-0.1,2.6-1.5c-1-7.5-2.6-23.9,1.4-32.9
			c2.5-5.6,9.7-6.7,13.7-2.2l6,6.8c1.4,1.6,3.8,1.7,5.4,0.4l0,0C298.3,1542.1,298.8,1540.2,298,1538.5z" class="color333333 svgShape"/><path fill="#9bf7ad" d="M436.6,1560.8l-4.3-16.9c-0.7-2.7-2.4-5-4.8-6.3l-10.3-5.7c-1.9-1.1-2.7-3.6-1.7-5.6l0,0
			c0.8-1.7,2.6-2.5,4.4-2.2l10.2,2.1c2.7,0.6,5.3-1.5,5.5-4.3l1.9-28.5c0.1-2.2,2-3.9,4.2-3.8l0,0c2.1,0.1,3.8,1.9,3.9,4.1l0.2,16.1
			l-0.2-18.1c0-2.6,2.1-4.7,4.7-4.5l0,0c2.3,0.2,4.1,2.2,4.1,4.5l-0.3,26.8l0.1-21.3c0-2.5,2-4.5,4.4-4.4l0,0
			c2.4,0.1,4.3,2.1,4.3,4.6l-0.7,28.6l0.5-21.6c0.1-2.4,2-4.3,4.3-4.3l0,0c2.3,0,4.2,1.8,4.3,4.2c1,17.6-0.3,37-3,57.4L436.6,1560.8
			z" class="colorf7c19b svgShape"/><g fill="#08120a" class="color000000 svgShape"><polygon fill="#9bf7ad" points="114.8 2442.7 79.6 2420.5 112.7 2365.6 147.8 2387.8" class="colorf7c19b svgShape"/><path fill="#333" d="M78.3,2433.1l-9.2,4.5l-2.7,1.6c-1.6,0.9-2.8,2.3-3.6,4l-3.2,6.4c-0.8,1.6-0.2,3.6,1.4,4.4l7,3.6l0.9-1.8
					l3.8,1.9l-0.9,1.8l8.3,4.5l0.7-1.5l3.9,2l-0.8,1.6l9.4,4.8l7.9-3.8c6.4,6.1,11.8,12.3,15.9,18.6c0.2,0.3,9.7,5.3,9.8,5l0.7-1.4
					l3.7,1.9l-0.7,1.4c3,1.8,6,3.4,9.1,4.7l0.7-1.5l3.6,1.9l-0.6,1.2c3.2,1.6,6.2,2.7,8.9,3.2l0.6-1.2l3.8,1.4l-0.5,1.1
					c2.3,0.8,4.5,1.2,6.8,1.4l0.4-1.3l3.9,0.3l0.1,1.5c4.2,0.3,8.2,0.4,11.7,0.2c0,0,3-4.6,0.1-6.4l-36.1-23.9L97.5,2443
					L78.3,2433.1z" class="color333333 svgShape"/><path fill="#585b59" d="M72.8,2425.9c-1.2,2.4-2.1,4.9-2.8,7.6l-1,4.1c14.8,7.3,28,15.4,38.7,24.9c2.2,2,4.3,4,6.3,6.1
					c17.1,17.9,39.1,27.8,65.3,30.5l1.7-3.5c1.3-2.6,0.6-5.8-1.7-7.6l-14.7-11.8c-2.6-2.1-5.3-4.1-7.9-6.2
					c-7.5-5.8-13.4-13-18.1-21.5c-0.3-0.5-0.5-0.9-0.8-1.4c-0.1-0.3-0.3-0.6-0.4-0.8c-2.2,3.4-7.9,6.2-8.2,6.3
					c-0.2,0.1-0.4,0.1-0.5,0c-0.1,0-0.1-0.1-0.2-0.2c-0.1-0.3,0-0.6,0.2-0.7c2-1,6.6-3.7,8.1-6.5c-0.1-0.2-0.2-0.4-0.3-0.6
					c-2.5-2.3-7.9-3.6-10.2-4c-0.3,0-0.5-0.3-0.4-0.6c0-0.3,0.3-0.5,0.6-0.4c0.3,0.1,5.6,0.9,9.1,3.1c-0.3-0.8-0.7-1.5-1-2.3
					c-0.2-0.5-0.4-1-0.6-1.5c-0.4-1.1-0.8-2.2-1.2-3.3c-0.2-0.4-0.3-0.9-0.5-1.3c-0.6-1.6-1.1-3.3-1.6-5c-2.4-1-6.2-0.9-7.8-0.7
					c-0.3,0-0.5-0.2-0.6-0.5c0-0.3,0.2-0.5,0.4-0.6c0.2,0,4.4-0.5,7.6,0.5c-0.2-0.7-0.4-1.4-0.6-2.1c-0.3-1.2-1-2.1-2.1-2.7
					l-37.4-21c-1.4-0.8-3.1-0.2-3.7,1.3l-2.1,4.7c-1.6,3.5-3.6,6.7-6.1,9.5C76.2,2420,74.3,2422.8,72.8,2425.9z" class="color58595b svgShape"/><path fill="#1f2320" d="M128.6,2452.1c0,0.1,0.1,0.2,0.2,0.2c0.1,0.1,0.3,0.1,0.5,0c0.3-0.1,5.9-2.9,8.2-6.3
					c-0.2-0.4-0.4-0.7-0.5-1.1c-1.4,2.8-6.1,5.5-8.1,6.5C128.6,2451.6,128.5,2451.9,128.6,2452.1z" class="color231f20 svgShape"/><path fill="#1f2320" d="M126,2439.8c0,0.3,0.1,0.6,0.4,0.6c2.3,0.4,7.7,1.7,10.2,4c-0.3-0.6-0.6-1.3-0.9-2c-3.6-2.2-8.8-3-9.1-3.1
					C126.3,2439.3,126.1,2439.5,126,2439.8z" class="color231f20 svgShape"/><path fill="#303030" d="M122.5,2427.9c0,0.3,0.3,0.5,0.6,0.5c1.6-0.2,5.4-0.3,7.8,0.7c-0.1-0.4-0.2-0.8-0.4-1.2
					c-3.2-1-7.3-0.5-7.6-0.5C122.6,2427.3,122.4,2427.6,122.5,2427.9z" class="color303030 svgShape"/><path fill="#404240" d="M72.8,2425.9c-1.2,2.4-2.1,4.9-2.8,7.6l-1,4.1c14.8,7.3,28,15.4,38.7,24.9l25.4-3.7
					c1.5-0.2,2.4-1.7,2.1-3.1l-7.3-32.6l-37.4-21c-1.4-0.8-3.1-0.2-3.7,1.3l-2.1,4.7c-1.6,3.5-3.6,6.7-6.1,9.5
					C76.2,2420,74.3,2422.8,72.8,2425.9z" class="color414042 svgShape"/><polygon fill="#585b59" points="126.3 2424.4 126.7 2424.3 126.6 2423.9 126.3 2423.7 126.1 2424.1 126.2 2424.2" class="color58595b svgShape"/><path fill="#585b59" d="M71.3,2435.3l0.4,0.1l-0.2,0.6l-0.4-0.1L71.3,2435.3z M71.6,2434.1l0.4,0.1l-0.2,0.6l-0.4-0.1
								L71.6,2434.1z M71.9,2432.9l0.4,0.1c-0.1,0.2-0.1,0.4-0.2,0.6l-0.4-0.1C71.8,2433.3,71.8,2433.1,71.9,2432.9z M72.2,2431.6
								l0.4,0.1c-0.1,0.2-0.1,0.4-0.2,0.6l-0.4-0.1C72.1,2432,72.2,2431.8,72.2,2431.6z M72.7,2430.4l0.4,0.2
								c-0.1,0.2-0.1,0.4-0.2,0.6l-0.4-0.2C72.5,2430.8,72.6,2430.6,72.7,2430.4z M73.1,2429.3l0.4,0.2c-0.1,0.2-0.2,0.4-0.2,0.6
								l-0.4-0.2C72.9,2429.6,73,2429.4,73.1,2429.3z M73.6,2428.1l0.4,0.2c-0.1,0.2-0.2,0.4-0.2,0.6l-0.4-0.2
								C73.4,2428.5,73.5,2428.3,73.6,2428.1z M74.1,2426.9l0.4,0.2c-0.1,0.2-0.2,0.4-0.3,0.6l-0.4-0.2
								C73.9,2427.3,74,2427.1,74.1,2426.9z M74.4,2426.4c0.1-0.2,0.2-0.4,0.3-0.6l0.4,0.2c-0.1,0.2-0.2,0.4-0.3,0.6L74.4,2426.4z
								 M74.9,2425.2c0.1-0.2,0.2-0.4,0.3-0.6l0.4,0.2c-0.1,0.2-0.2,0.4-0.3,0.5L74.9,2425.2z M75.6,2424.1c0.1-0.2,0.2-0.4,0.3-0.5
								l0.4,0.2c-0.1,0.2-0.2,0.4-0.3,0.5L75.6,2424.1z M76.2,2423.1c0.1-0.2,0.2-0.4,0.3-0.5l0.4,0.3c-0.1,0.2-0.2,0.3-0.3,0.5
								L76.2,2423.1z M76.9,2422c0.1-0.2,0.2-0.3,0.4-0.5l0.4,0.3c-0.1,0.2-0.2,0.3-0.4,0.5L76.9,2422z M77.6,2421
								c0.1-0.2,0.2-0.3,0.4-0.5l0.4,0.3c-0.1,0.2-0.2,0.3-0.4,0.5L77.6,2421z M78.4,2420c0.1-0.2,0.3-0.3,0.4-0.5l0.4,0.3
								c-0.1,0.2-0.3,0.3-0.4,0.5L78.4,2420z M79.2,2419c0.1-0.2,0.3-0.3,0.4-0.5l0.3,0.3c-0.1,0.2-0.3,0.3-0.4,0.5L79.2,2419z
								 M80,2418c0.1-0.2,0.3-0.3,0.4-0.5l0.3,0.3c-0.1,0.2-0.3,0.3-0.4,0.5L80,2418z M80.8,2417.1c0.1-0.2,0.3-0.3,0.4-0.5l0.4,0.3
								c-0.1,0.2-0.3,0.3-0.4,0.5L80.8,2417.1z M81.6,2416.1c0.1-0.2,0.2-0.3,0.4-0.5l0.4,0.3c-0.1,0.2-0.2,0.3-0.4,0.5L81.6,2416.1
								z M82.3,2415.1c0.1-0.2,0.2-0.3,0.4-0.5l0.4,0.3c-0.1,0.2-0.2,0.3-0.4,0.5L82.3,2415.1z M83,2414.1c0.1-0.2,0.2-0.3,0.3-0.5
								l0.4,0.3c-0.1,0.2-0.2,0.4-0.3,0.5L83,2414.1z M83.6,2413c0.1-0.2,0.2-0.4,0.3-0.5l0.4,0.2c-0.1,0.2-0.2,0.4-0.3,0.5
								L83.6,2413z M84.3,2411.9c0.1-0.2,0.2-0.4,0.3-0.5l0.4,0.2c-0.1,0.2-0.2,0.4-0.3,0.6L84.3,2411.9z M84.9,2410.8
								c0.1-0.2,0.2-0.4,0.3-0.6l0.4,0.2c-0.1,0.2-0.2,0.4-0.3,0.6L84.9,2410.8z M85.7,2409.2l0.4,0.2c-0.1,0.2-0.2,0.4-0.3,0.6
								l-0.4-0.2C85.5,2409.5,85.6,2409.3,85.7,2409.2z M86.2,2408l0.4,0.2l-0.3,0.6l-0.4-0.2L86.2,2408z M86.7,2406.9l0.4,0.2
								l-0.3,0.6l-0.4-0.2L86.7,2406.9z M87.3,2405.7l0.4,0.2l-0.3,0.6l-0.4-0.2L87.3,2405.7z M87.8,2404.6l0.4,0.2l-0.3,0.6
								l-0.4-0.2L87.8,2404.6z M125,2423.5l0.2-0.4l0.5,0.3l-0.2,0.4L125,2423.5z M123.9,2422.9l0.2-0.4l0.5,0.3l-0.2,0.4
								L123.9,2422.9z M122.8,2422.2l0.2-0.4l0.5,0.3l-0.2,0.4L122.8,2422.2z M121.7,2421.6l0.2-0.4l0.5,0.3l-0.2,0.4L121.7,2421.6z
								 M120.6,2421l0.2-0.4l0.5,0.3l-0.2,0.4L120.6,2421z M119.6,2420.4l0.2-0.4l0.5,0.3l-0.2,0.4L119.6,2420.4z M118.5,2419.8
								l0.2-0.4l0.5,0.3l-0.2,0.4L118.5,2419.8z M117.4,2419.2l0.2-0.4l0.5,0.3l-0.2,0.4L117.4,2419.2z M116.3,2418.6l0.2-0.4
								l0.5,0.3l-0.2,0.4L116.3,2418.6z M115.2,2418l0.2-0.4l0.5,0.3l-0.3,0.4L115.2,2418z M88.1,2404c0.1-0.2,0.3-0.4,0.5-0.5
								l0.2,0.4c-0.1,0.1-0.3,0.2-0.4,0.4L88.1,2404z M114.1,2417.4l0.2-0.4l0.5,0.3l-0.2,0.4L114.1,2417.4z M113.1,2416.8l0.2-0.4
								l0.5,0.3l-0.2,0.4L113.1,2416.8z M112,2416.2l0.2-0.4l0.5,0.3l-0.3,0.4L112,2416.2z M110.9,2415.6l0.2-0.4l0.5,0.3l-0.3,0.4
								L110.9,2415.6z M109.8,2415l0.2-0.4l0.5,0.3l-0.2,0.4L109.8,2415z M108.7,2414.4l0.2-0.4l0.5,0.3l-0.2,0.4L108.7,2414.4z
								 M107.7,2413.7l0.2-0.4l0.5,0.3l-0.2,0.4L107.7,2413.7z M106.6,2413.1l0.2-0.4l0.5,0.3l-0.2,0.4L106.6,2413.1z M105.5,2412.5
								l0.2-0.4l0.5,0.3l-0.2,0.4L105.5,2412.5z M104.4,2411.9l0.2-0.4l0.5,0.3l-0.2,0.4L104.4,2411.9z M103.3,2411.3l0.2-0.4
								l0.5,0.3l-0.2,0.4L103.3,2411.3z M102.2,2410.7l0.2-0.4l0.5,0.3l-0.2,0.4L102.2,2410.7z M101.2,2410.1l0.2-0.4l0.5,0.3
								l-0.2,0.4L101.2,2410.1z M100.1,2409.5l0.2-0.4l0.5,0.3l-0.2,0.4L100.1,2409.5z M99,2408.9l0.2-0.4l0.5,0.3l-0.2,0.4
								L99,2408.9z M97.9,2408.3l0.2-0.4l0.5,0.3l-0.2,0.4L97.9,2408.3z M96.8,2407.7l0.2-0.4l0.5,0.3l-0.2,0.4L96.8,2407.7z
								 M95.8,2407.1l0.2-0.4l0.5,0.3l-0.2,0.4L95.8,2407.1z M94.7,2406.5l0.2-0.4l0.5,0.3l-0.2,0.4L94.7,2406.5z M89.2,2403.2
								c0.2,0,0.5,0,0.7,0.1l-0.1,0.4c-0.2-0.1-0.3-0.1-0.5-0.1L89.2,2403.2z M93.6,2405.8l0.2-0.4l0.5,0.3l-0.2,0.4L93.6,2405.8z
								 M92.5,2405.2l0.2-0.4l0.5,0.3l-0.2,0.4L92.5,2405.2z M91.4,2404.6l0.2-0.4l0.5,0.3l-0.2,0.4L91.4,2404.6z M90.3,2404
								l0.2-0.4l0.5,0.3l-0.2,0.4L90.3,2404z" class="color58595b svgShape"/><polygon fill="#585b59" points="70.8 2437 71.3 2437.2 71.5 2436.8 71.4 2436.7 71.4 2436.6 71 2436.5" class="color58595b svgShape"/><path fill="#585b59" d="M106.8,2459.8l0.3-0.4l0.5,0.4l-0.3,0.4L106.8,2459.8z M105.8,2459l0.3-0.4l0.5,0.4l-0.3,0.4L105.8,2459
								z M104.9,2458.2l0.3-0.4l0.5,0.4l-0.3,0.4L104.9,2458.2z M103.9,2457.5l0.3-0.4l0.5,0.4l-0.3,0.4L103.9,2457.5z M103,2456.7
								l0.3-0.4l0.5,0.4l-0.3,0.4L103,2456.7z M102,2455.9l0.3-0.4l0.5,0.4l-0.3,0.4L102,2455.9z M101,2455.2l0.3-0.4l0.5,0.4
								l-0.3,0.4L101,2455.2z M100.1,2454.5l0.3-0.4l0.5,0.4l-0.3,0.4L100.1,2454.5z M99.1,2453.7l0.3-0.4l0.5,0.4l-0.3,0.4
								L99.1,2453.7z M98.1,2453l0.3-0.4l0.5,0.4l-0.3,0.4L98.1,2453z M97.1,2452.3l0.3-0.4l0.5,0.4l-0.3,0.4L97.1,2452.3z
								 M96.1,2451.6l0.3-0.4l0.5,0.4l-0.3,0.4L96.1,2451.6z M95.1,2450.9l0.3-0.4l0.5,0.3l-0.3,0.4L95.1,2450.9z M94.1,2450.2
								l0.3-0.4l0.5,0.3l-0.3,0.4L94.1,2450.2z M93,2449.6l0.2-0.4l0.5,0.3l-0.2,0.4L93,2449.6z M92,2448.9l0.2-0.4l0.5,0.3
								l-0.2,0.4L92,2448.9z M91,2448.2l0.2-0.4l0.5,0.3l-0.2,0.4L91,2448.2z M90,2447.6l0.2-0.4l0.5,0.3l-0.2,0.4L90,2447.6z
								 M88.9,2446.9l0.2-0.4l0.5,0.3l-0.2,0.4L88.9,2446.9z M87.9,2446.3l0.2-0.4l0.5,0.3l-0.2,0.4L87.9,2446.3z M86.8,2445.6
								l0.2-0.4l0.5,0.3l-0.2,0.4L86.8,2445.6z M85.8,2445l0.2-0.4l0.5,0.3l-0.2,0.4L85.8,2445z M84.7,2444.4l0.2-0.4l0.5,0.3
								l-0.2,0.4L84.7,2444.4z M83.7,2443.8l0.2-0.4l0.5,0.3l-0.2,0.4L83.7,2443.8z M82.6,2443.2l0.2-0.4l0.5,0.3l-0.2,0.4
								L82.6,2443.2z M81.6,2442.6l0.2-0.4l0.5,0.3l-0.2,0.4L81.6,2442.6z M80.5,2442l0.2-0.4l0.5,0.3l-0.2,0.4L80.5,2442z
								 M79.4,2441.4l0.2-0.4l0.5,0.3l-0.2,0.4L79.4,2441.4z M78.3,2440.8l0.2-0.4l0.5,0.3l-0.2,0.4L78.3,2440.8z M77.3,2440.2
								l0.2-0.4l0.5,0.3l-0.2,0.4L77.3,2440.2z M76.2,2439.7l0.2-0.4l0.5,0.3l-0.2,0.4L76.2,2439.7z M72,2437l0.5,0.3l-0.2,0.4
								l-0.5-0.3L72,2437z M75.1,2439.1l0.2-0.4l0.5,0.3l-0.2,0.4L75.1,2439.1z M73.1,2437.6l0.5,0.3l-0.2,0.4l-0.5-0.3L73.1,2437.6
								z M74,2438.5l0.2-0.4l0.5,0.3l-0.2,0.4L74,2438.5z" class="color58595b svgShape"/><polygon fill="#585b59" points="108 2460.9 108.4 2460.8 108.3 2460.4 108.1 2460.4 108 2460.3 107.7 2460.6" class="color58595b svgShape"/><path fill="#585b59" d="M108.9,2460.3l0.6-0.1l0.1,0.5l-0.6,0.1L108.9,2460.3z M110.1,2460.1l0.6-0.1l0.1,0.5l-0.6,0.1
								L110.1,2460.1z M111.3,2459.9l0.6-0.1l0.1,0.5l-0.6,0.1L111.3,2459.9z M112.6,2459.8l0.6-0.1l0.1,0.5l-0.6,0.1L112.6,2459.8z
								 M113.8,2459.6l0.6-0.1l0.1,0.5l-0.6,0.1L113.8,2459.6z M115,2459.4l0.6-0.1l0.1,0.5l-0.6,0.1L115,2459.4z M116.2,2459.2
								l0.6-0.1l0.1,0.5l-0.6,0.1L116.2,2459.2z M117.4,2459.1l0.6-0.1l0.1,0.5l-0.6,0.1L117.4,2459.1z M118.6,2458.9l0.6-0.1
								l0.1,0.5l-0.6,0.1L118.6,2458.9z M119.8,2458.7l0.6-0.1l0.1,0.5l-0.6,0.1L119.8,2458.7z M121,2458.5l0.6-0.1l0.1,0.5
								l-0.6,0.1L121,2458.5z M122.2,2458.4l0.6-0.1l0.1,0.5l-0.6,0.1L122.2,2458.4z M123.4,2458.2l0.6-0.1l0.1,0.5l-0.6,0.1
								L123.4,2458.2z M124.6,2458l0.6-0.1l0.1,0.5l-0.6,0.1L124.6,2458z M125.8,2457.8l0.6-0.1l0.1,0.5l-0.6,0.1L125.8,2457.8z
								 M127,2457.7l0.6-0.1l0.1,0.5l-0.6,0.1L127,2457.7z M128.2,2457.5l0.6-0.1l0.1,0.5l-0.6,0.1L128.2,2457.5z M129.4,2457.3
								l0.6-0.1l0.1,0.5l-0.6,0.1L129.4,2457.3z M130.6,2457.1l0.6-0.1l0.1,0.5l-0.6,0.1L130.6,2457.1z M131.8,2457l0.6-0.1l0.1,0.5
								l-0.6,0.1L131.8,2457z M132.9,2456.7c0.1-0.1,0.2-0.2,0.3-0.3c0,0,0-0.1,0.1-0.1l0.4,0.2c0,0-0.1,0.1-0.1,0.1
								c-0.1,0.2-0.2,0.3-0.4,0.4L132.9,2456.7z M133.3,2455.6l-0.1-0.3l0.4-0.1l0.1,0.3c0,0.1,0,0.3,0,0.4l-0.5,0
								C133.3,2455.8,133.3,2455.7,133.3,2455.6z M133,2454.1l0.4-0.1l0.1,0.6l-0.4,0.1L133,2454.1z M132.7,2452.9l0.4-0.1l0.1,0.6
								l-0.4,0.1L132.7,2452.9z M132.4,2451.7l0.4-0.1l0.1,0.6l-0.4,0.1L132.4,2451.7z M132.1,2450.4l0.4-0.1l0.1,0.6l-0.4,0.1
								L132.1,2450.4z M131.9,2449.2l0.4-0.1l0.1,0.6l-0.4,0.1L131.9,2449.2z M131.6,2448l0.4-0.1l0.1,0.6l-0.4,0.1L131.6,2448z
								 M131.3,2446.8l0.4-0.1l0.1,0.6l-0.4,0.1L131.3,2446.8z M131.1,2445.6l0.4-0.1l0.1,0.6l-0.4,0.1L131.1,2445.6z M130.8,2444.4
								l0.4-0.1l0.1,0.6l-0.4,0.1L130.8,2444.4z M130.5,2443.2l0.4-0.1l0.1,0.6l-0.4,0.1L130.5,2443.2z M130.2,2442l0.4-0.1l0.1,0.6
								l-0.4,0.1L130.2,2442z M130,2440.7l0.4-0.1l0.1,0.6l-0.4,0.1L130,2440.7z M129.7,2439.5l0.4-0.1l0.1,0.6l-0.4,0.1
								L129.7,2439.5z M129.4,2438.3l0.4-0.1l0.1,0.6l-0.4,0.1L129.4,2438.3z M129.1,2437.1l0.4-0.1l0.1,0.6l-0.4,0.1L129.1,2437.1z
								 M128.9,2435.9l0.4-0.1l0.1,0.6l-0.4,0.1L128.9,2435.9z M128.6,2434.7l0.4-0.1l0.1,0.6l-0.4,0.1L128.6,2434.7z M128.3,2433.5
								l0.4-0.1l0.1,0.6l-0.4,0.1L128.3,2433.5z M128,2432.3l0.4-0.1l0.1,0.6l-0.4,0.1L128,2432.3z M127.8,2431l0.4-0.1l0.1,0.6
								l-0.4,0.1L127.8,2431z M127.5,2429.8l0.4-0.1l0.1,0.6l-0.4,0.1L127.5,2429.8z M127.2,2428.6l0.4-0.1l0.1,0.6l-0.4,0.1
								L127.2,2428.6z M127,2427.4l0.4-0.1l0.1,0.6l-0.4,0.1L127,2427.4z M126.7,2426.2l0.4-0.1l0.1,0.6l-0.4,0.1L126.7,2426.2z
								 M126.4,2425l0.4-0.1l0.1,0.6l-0.4,0.1L126.4,2425z" class="color58595b svgShape"/><g class="color000000 svgShape"><path fill="#e6e8e6" d="M127,2450.5c0.7-1.1,2.2-1.4,3.3-0.7c1.1,0.7,1.4,2.2,0.7,3.4c-0.7,1.1-2.2,1.4-3.3,0.7
								C126.6,2453.1,126.3,2451.6,127,2450.5z M127.6,2450.9c-0.5,0.8-0.3,1.8,0.5,2.3c0.7,0.5,1.8,0.3,2.3-0.5
								c0.5-0.8,0.3-1.8-0.5-2.3C129.1,2449.9,128.1,2450.1,127.6,2450.9z" class="colore6e7e8 svgShape"/><path fill="#e6e8e6" d="M123.9,2438.7c0.7-1.1,2.2-1.4,3.3-0.7c1.1,0.7,1.4,2.2,0.7,3.4c-0.7,1.1-2.2,1.4-3.3,0.7
								C123.5,2441.3,123.2,2439.8,123.9,2438.7z M124.5,2439.1c-0.5,0.8-0.3,1.8,0.5,2.3c0.7,0.5,1.8,0.3,2.3-0.5
								c0.5-0.8,0.3-1.8-0.5-2.3C126,2438.1,125,2438.3,124.5,2439.1z" class="colore6e7e8 svgShape"/><g class="color000000 svgShape"><path fill="#1f2320" d="M128.9,2451.4c-0.3,0.1-0.4,0.4-0.2,0.7c0,0.1,0.1,0.2,0.2,0.2c0.1,0.1,0.3,0.1,0.5,0
								c0.3-0.1,5.9-2.9,8.2-6.3c0.1-0.1,0.1-0.2,0.2-0.3c0.2-0.4,0.4-0.8,0.5-1.2c0.1-0.4,0.2-0.9,0.2-1.3
								c-0.1-1.8-1.5-3.4-4.3-4.6c0.2,0.5,0.4,1,0.6,1.5c1.7,1,2.6,2,2.6,3.2c0,0.1,0,0.2,0,0.3c0,0.4-0.1,0.8-0.3,1.2
								c0,0.1-0.1,0.1-0.1,0.2C135.5,2447.7,130.9,2450.5,128.9,2451.4z" class="color231f20 svgShape"/><path fill="#1f2320" d="M126,2439.8c0,0.3,0.1,0.6,0.4,0.6c2.3,0.4,7.7,1.7,10.2,4c0.1,0.1,0.3,0.3,0.4,0.4
								c0.3,0.3,0.5,0.6,0.7,1c0.1,0.1,0.1,0.3,0.2,0.5c0.1,0.2,0.1,0.5,0.1,0.7c0.2,0.5,0.5,1,0.8,1.4c0.3-0.8,0.4-1.6,0.2-2.4
								c-0.1-0.5-0.3-0.9-0.6-1.4c-0.2-0.3-0.5-0.7-0.9-1c-0.5-0.4-1-0.8-1.6-1.2c-3.6-2.2-8.8-3-9.1-3.1
								C126.3,2439.3,126.1,2439.5,126,2439.8z" class="color231f20 svgShape"/></g></g><g class="color000000 svgShape"><path fill="#e6e8e6" d="M120.9,2426.7c0.6-1.2,2-1.7,3.2-1.1c1.2,0.6,1.6,2.1,1,3.2c-0.6,1.2-2,1.7-3.2,1.1
							C120.8,2429.4,120.3,2427.9,120.9,2426.7z M121.5,2427.1c-0.4,0.8-0.1,1.8,0.7,2.2c0.8,0.4,1.8,0.1,2.2-0.7
							c0.4-0.8,0.1-1.8-0.7-2.2C122.9,2425.9,121.9,2426.2,121.5,2427.1z" class="colore6e7e8 svgShape"/><path fill="#1f2320" d="M122.5,2427.9c0,0.3,0.3,0.5,0.6,0.5c1.6-0.2,5.4-0.3,7.8,0.7c0.8,0.3,1.5,0.8,1.8,1.4
							c0.5,0.9,0.5,2.1-0.2,3.6c0.1,0.4,0.3,0.9,0.5,1.3c1.2-2.3,1.5-4.1,0.6-5.5c-0.6-1-1.7-1.7-3.1-2.1c-3.2-1-7.3-0.5-7.6-0.5
							C122.6,2427.3,122.4,2427.6,122.5,2427.9z" class="color231f20 svgShape"/></g></g><g fill="#08120a" class="color000000 svgShape"><path fill="#333" d="M229.9,1926.7l-14.5,218.8c-1.1,17.2-6.3,33.9-14.9,48.7L87.7,2385.7l54.4,30.6l131.3-176.3
				c17.5-22.8,29.4-49.6,34.5-78.1l24.1-133.9l58.7,123.3c9.3,19.5,13.6,41.2,12.4,62.9l-10.3,195.7l61,3.8l29.4-207.1
				c5.9-34.7,3.8-70.3-6-104l-64.1-220.1L311,1872.3L229.9,1926.7z" class="color333333 svgShape"/><path fill="#f1f2f1" d="M263.4,1620.7l8.5-19.8c14.6,18.1,30.4,20.2,47.6,3.9l54.7,76.3l-14.2,37.6l5.5,130.9l-11.5,62.9
					c-9.7,16.9-26.9,20.2-48.2,15.8l-24.5-15l-40.7-128.3l-3.7-55c0,0,8.2-39.2,9.8-41.3C248.5,1686.6,263.4,1620.7,263.4,1620.7z" class="colorf1f2f2 svgShape"/><path fill="#1ee546" d="M261.3,1881.2l25.4-37.5l-79.4-54.7l9.1-20.1l8.3,192.9c0.2,2.4,2.2,4.1,4.5,3.8
						c14.1-1.5,65.3-7.7,76.8-37.5c1.1-2.8-0.6-6.4-1.3-9.1c-1.2-4.5-2.2-9-3.1-13.5c-10.7-54.1-1.2-109.4-6-163.9
						c-3.8-43.6-14.5-86.8-21.8-129.9c-0.1-0.6-1.9-10.9-1.9-10.9c-46,8.6-91.3,62.1-128.5,174.1c-6.5,19.6,1.7,41.3,19.5,51.2
						L261.3,1881.2z" class="color1e88e5 svgShape"/><path fill="#1ee546" d="M430.7,1551.2c0,0,5.3,133.1-7.7,120.9c-9.6-9.1-17.9-19.4-28-27.9c-9.4-8-19.7-15.2-30.4-21.3
						c-6.8-3.9-13.8-7.3-21.1-10.3c-3.8-1.6-7.7-3-11.6-4.3c-1.4-0.5-11.5-3-12.4-3.6c3,11.1,6,22.2,9,33.3
						c5.7,20.9,8.8,41.3,8.4,63.1c-0.4,17.5-1.8,35-0.7,52.5c1.2,20.4,7,39.7,10.8,59.7c7,37.2,6.2,75.6,7.8,113.4
						c0.2,5.3,5.1,9.3,10.2,8.3c20.6-4.1,37.6-13.8,50.8-29.1c1.4-1.6,1.9-3.8,1.5-5.9c-4.4-24.7-9.3-49.4-14.5-74
						c-5.7-26.8-25.1-103.2-20.6-104.5c1.8-0.5,17.9,6.2,36.8,13.2c30.4,11.2,63.2-2.2,65.9-35.2c5-61.8-10.4-147.7-10.4-147.7
						L430.7,1551.2z" class="color1e88e5 svgShape"/></g><path fill="#96eaa7" d="M317.1,1587.7c0,0-22.3,3.2-38.1-10.8c0,0,12.8,18,39.2,18.7L317.1,1587.7z" class="coloreab896 svgShape"/><path fill="#9bf7ad" d="M277,1845.8l14.6,1.4c2.7,0.5,5.4-0.1,7.6-1.7l9.5-7c1.8-1.3,4.3-0.9,5.6,0.9l0,0c1.1,1.5,1.1,3.5,0,5
			l-6.3,8.5c-1.7,2.3-1,5.5,1.4,6.9l24.3,14.1c1.9,1.1,2.6,3.6,1.6,5.5l0,0c-1,1.9-3.3,2.7-5.3,1.8l-14.2-6.7l16.1,7.7
			c2.3,1.1,3.2,4,2,6.3l0,0c-1.1,2.1-3.7,2.9-5.8,1.8l-23.4-11.9l18.7,9.3c2.2,1.1,3.1,3.8,2,6l0,0c-1.1,2.2-3.7,3.1-5.9,1.9
			l-24.9-13.1l18.8,9.8c2.1,1.1,3,3.7,1.9,5.9l0,0c-1,2.1-3.4,3.1-5.6,2.2c-15.9-6.7-32.4-16.3-49.2-27.6L277,1845.8z" class="colorf7c19b svgShape"/><g fill="#08120a" class="color000000 svgShape"><polygon fill="#256832" points="631.3 1525.3 358.2 1534.1 356.5 1510.9 627.8 1477.6" class="color683725 svgShape"/><path fill="#e0e0e0" d="M635.2,1527.5l-4.3,0.3c-1.5,0.1-2.7-1-2.8-2.5l-3.4-47.4c-0.1-1.5,1-2.8,2.4-2.9l4.3-0.3
				c1.5-0.1,2.7,1,2.8,2.5l3.4,47.4C637.7,1526.1,636.6,1527.4,635.2,1527.5z" class="colore0e0e0 svgShape"/><path fill="#e0e0e0" d="M504.2,1531.7l-4.9,0.4c-1.3,0.1-2.4-0.9-2.5-2.2l-2.6-36.1c-0.1-1.3,0.9-2.5,2.2-2.6l4.9-0.4
				c1.3-0.1,2.4,0.9,2.5,2.2l2.6,36.1C506.4,1530.5,505.5,1531.6,504.2,1531.7z" class="colore0e0e0 svgShape"/><path fill="#e0e0e0" d="M362.7,1535.2l-5.9,0.5c-1,0.1-1.9-0.7-2-1.8l-1.6-22.4c-0.1-1.1,0.7-2,1.7-2l5.9-0.5c1-0.1,1.9,0.7,2,1.8
				l1.6,22.4C364.5,1534.2,363.7,1535.2,362.7,1535.2z" class="colore0e0e0 svgShape"/></g><g fill="#08120a" class="color000000 svgShape"><circle cx="1341.1" cy="1519.4" r="145.1" fill="#404240" class="color414042 svgShape" transform="rotate(-45.001 1341.103 1519.448)"/><circle cx="1330.8" cy="1514.3" r="145.1" fill="#585b59" class="color58595b svgShape" transform="rotate(-45.001 1330.775 1514.284)"/><path fill="#fff" d="M1414.1,1577.1h-146c-6.4,0-11.5-5.2-11.5-11.5v-92.3c0-6.3,5.2-11.5,11.5-11.5h146
							c6.4,0,11.5,5.2,11.5,11.5v92.3C1425.6,1571.9,1420.4,1577.1,1414.1,1577.1z M1268.1,1469.7c-2,0-3.6,1.6-3.6,3.6v92.3
							c0,2,1.6,3.6,3.6,3.6h146c2,0,3.6-1.6,3.6-3.6v-92.3c0-2-1.6-3.6-3.6-3.6H1268.1z" class="colorffffff svgShape"/><polygon fill="#fff" points="1341.1 1536.2 1259.9 1471.5 1264.8 1465.3 1341.1 1526.1 1417.4 1465.3 1422.3 1471.5" class="colorffffff svgShape"/><rect width="7.9" height="82.4" x="1383" y="1504.4" fill="#fff" class="colorffffff svgShape" transform="rotate(-53.049 1386.998 1545.73)"/><polygon fill="#fff" points="1264.8 1576.3 1259.9 1570 1261.6 1568.8 1326.1 1518 1331 1524.2" class="colorffffff svgShape"/><g class="color000000 svgShape"><circle cx="1787.3" cy="1519.4" r="145.1" fill="#404240" class="color414042 svgShape" transform="rotate(-45.001 1787.262 1519.453)"/><circle cx="1776.9" cy="1514.3" r="145.1" fill="#585b59" class="color58595b svgShape" transform="rotate(-45.001 1776.934 1514.29)"/><g class="color000000 svgShape"><path fill="#fff" d="M1822.1,1596.8c-0.2,0-0.4,0-0.5,0c-79.3-10.7-121.6-53.7-126-127.6c-0.1-1.8,1.1-3.5,2.8-4l33.7-10
							c1.9-0.6,3.9,0.4,4.7,2.1l15.5,33.7c0.7,1.6,0.3,3.5-1,4.7l-13.2,11.1c10.3,21.6,26.6,38.8,48.4,51.1l11.7-12.8
							c1.1-1.2,2.8-1.6,4.3-1.1l33.4,12c1,0.4,1.8,1.1,2.2,2.1c0.4,1,0.5,2.1,0.1,3l-12.4,33
							C1825.2,1595.8,1823.8,1596.8,1822.1,1596.8z M1703.7,1471.8c5,67.7,42.9,105.9,115.8,116.7l9.9-26.3l-27.2-9.8l-12,13.2
							c-1.2,1.3-3.2,1.7-4.8,0.8c-25.7-13.8-44.5-33.6-55.8-59c-0.7-1.6-0.3-3.5,1.1-4.6l13.2-11.1l-12.8-27.9L1703.7,1471.8z" class="colorffffff svgShape"/><path fill="#fff" d="M1809.6,1526.4c-1.8,0-3.5-1.3-3.9-3.2c-4.7-23.4-17.4-36.2-38.8-39c-2.2-0.3-3.7-2.3-3.4-4.4
								c0.3-2.2,2.3-3.7,4.4-3.4c24.8,3.3,40.1,18.6,45.5,45.3c0.4,2.1-0.9,4.2-3.1,4.6C1810.1,1526.4,1809.9,1526.4,1809.6,1526.4z
								" class="colorffffff svgShape"/><path fill="#fff" d="M1832.8,1523.1c-1.8,0-3.5-1.3-3.9-3.2c-7.1-35.3-26.3-54.6-58.7-58.9c-2.2-0.3-3.7-2.3-3.4-4.4
								c0.3-2.2,2.2-3.7,4.4-3.4c35.6,4.8,57.6,26.7,65.4,65.2c0.4,2.1-0.9,4.2-3.1,4.6C1833.3,1523.1,1833.1,1523.1,1832.8,1523.1z
								" class="colorffffff svgShape"/><path fill="#fff" d="M1854.3,1517.4c-1.8,0-3.5-1.3-3.9-3.2c-9-44.7-33.4-69.1-74.4-74.6c-2.2-0.3-3.7-2.3-3.4-4.4
								c0.3-2.2,2.3-3.7,4.4-3.4c44.2,5.9,71.5,33.1,81.1,80.9c0.4,2.1-0.9,4.2-3.1,4.6C1854.8,1517.3,1854.6,1517.4,1854.3,1517.4z
								" class="colorffffff svgShape"/></g></g><g class="color000000 svgShape"><circle cx="2233.4" cy="1519.4" r="145.1" fill="#404240" class="color414042 svgShape" transform="rotate(-45.001 2233.42 1519.458)"/><circle cx="2223.1" cy="1514.3" r="145.1" fill="#585b59" class="color58595b svgShape" transform="rotate(-45.001 2223.093 1514.295)"/><g class="color000000 svgShape"><path fill="#fff" d="M2229,1582.7c-15.8,0-29.6-2.7-41.1-8c-11.2-5.2-19.7-13-25.2-23.2c-5.5-10.3-8.3-21.6-8.3-33.8
						c0-13.3,3.2-25.9,9.5-37.4c6.3-11.4,15-20.1,25.8-25.8c10.9-5.8,23.7-8.7,37.8-8.7c12,0,22.7,2.3,32,7
						c9.1,4.6,16.2,11.1,21,19.5c4.8,8.5,7.3,17.8,7.3,27.9c0,12.1-3.6,22.7-11.1,32.5c-9.3,12.2-20.8,18.2-35.2,18.2
						c-4.4,0-6.6-0.9-7.7-1.7c-1.5-1.1-2.5-2.6-3.1-4.7l-1.1-4.6l-3.4,3.3c-5.3,5.2-11.3,7.7-18.2,7.7c-7.5,0-13.5-2.5-18.4-7.6
						c-4.9-5.2-7.4-11.9-7.4-20.7c0-11,3.1-21.2,9.3-30.2c7.4-11,16.6-16.3,28.1-16.3c7.9,0,13.5,2.9,17.2,8.8l3.5,5.6l2.8-12.5h14
						l-10.5,49.8c-1,4.7-1.1,6.3-1.1,7.1c0,1.9,0.5,3.5,1.6,4.6c1.1,1.2,2.5,1.8,4,1.8c3,0,6.6-1.6,10.8-4.9c5.4-4,9.7-9.4,13-16.1
						c3.3-6.7,4.9-13.7,4.9-20.8c0-12.9-4.7-23.8-14-32.5c-9.3-8.6-22.3-13-38.6-13c-13.8,0-25.7,2.9-35.4,8.6
						c-9.7,5.7-17.2,13.9-22.1,24.2c-4.9,10.2-7.3,21-7.3,32.1c0,10.9,2.8,20.9,8.3,29.9c5.5,9,13.4,15.6,23.4,19.8
						c9.8,4,21.1,6.1,33.7,6.1c12.1,0,22.6-1.7,31.4-5.1c8.2-3.2,15-7.9,20.3-14l0.5-0.6h10l-2,2.9c-4.5,6.3-10.4,11.6-17.6,15.6
						C2259.2,1579.6,2245.3,1582.7,2229,1582.7z M2221.4,1483.9c-4.9,0-9.5,1.9-13.6,5.6c-4,3.6-7,8.7-8.9,15.3
						c-1.9,6.3-2.9,12-2.9,16.9c0,7,1.5,12.1,4.5,15.6c3,3.5,7,5.4,11.5,5.4c3.3,0,6.4-0.8,9.3-2.4c2.1-1.1,4.3-2.9,6.3-5.3
						c2.9-3.3,5.3-7.9,7.3-14.1c2-6,3-11.7,3-17c0-6.2-1.5-11.1-4.6-14.6C2230.2,1485.8,2226,1483.9,2221.4,1483.9z" class="colorffffff svgShape"/><path fill="#fff" d="M2229,1580.9c-15.5,0-29.1-2.6-40.3-7.8c-10.9-5.1-19.1-12.6-24.4-22.4c-5.4-10-8.1-21.1-8.1-32.9
						c0-13,3.1-25.3,9.3-36.6c6.1-11.1,14.5-19.6,25.1-25.1c10.7-5.6,23.1-8.5,37-8.5c11.7,0,22.1,2.3,31.1,6.8
						c8.8,4.4,15.6,10.7,20.3,18.8c4.7,8.2,7.1,17.2,7.1,27c0,11.7-3.5,21.9-10.7,31.4c-8.9,11.8-20,17.5-33.8,17.5
						c-4.1,0-6-0.8-6.7-1.3c-1.2-0.8-1.9-2-2.3-3.7l-1.9-7.6l-5.6,5.5c-5,4.8-10.5,7.2-17,7.2c-7,0-12.6-2.3-17.1-7.1
						c-4.6-4.8-6.8-11.2-6.8-19.4c0-10.6,3-20.4,9-29.2c7.1-10.4,15.8-15.5,26.6-15.5c7.2,0,12.3,2.6,15.6,7.9l5.8,9.3l3.5-15.4
						h10.3l-10,47.6c-1,4.9-1.1,6.5-1.1,7.4c0,2.4,0.7,4.4,2,5.8c1.4,1.5,3.3,2.4,5.4,2.4c3.4,0,7.3-1.7,11.9-5.2
						c5.6-4.1,10.1-9.8,13.5-16.7c3.4-6.9,5.1-14.2,5.1-21.6c0-13.4-4.9-24.8-14.6-33.8c-9.6-8.9-23-13.5-39.9-13.5
						c-14.1,0-26.3,3-36.3,8.8c-10.1,5.9-17.7,14.3-22.8,25c-5,10.5-7.5,21.5-7.5,32.9c0,11.2,2.9,21.6,8.6,30.8
						c5.7,9.3,13.9,16.2,24.3,20.5c10,4.1,21.6,6.2,34.3,6.2c12.3,0,23.1-1.8,32.1-5.2c8.5-3.3,15.5-8.1,21-14.5h5.7
						c-4.3,6.1-10,11.2-17,15.1C2258.6,1577.8,2245,1580.9,2229,1580.9z M2221.4,1482.1c-5.4,0-10.4,2.1-14.8,6.1
						c-4.2,3.8-7.4,9.2-9.4,16.1c-1.9,6.5-2.9,12.3-2.9,17.4c0,7.5,1.6,13,4.9,16.8c3.4,3.9,7.8,6,12.9,6c3.6,0,7-0.9,10.1-2.7
						c2.3-1.2,4.6-3.1,6.8-5.7c3-3.5,5.5-8.3,7.6-14.7c2-6.2,3.1-12.1,3.1-17.6c0-6.7-1.7-12-5-15.8
						C2231.2,1484.2,2226.6,1482.1,2221.4,1482.1z" class="colorffffff svgShape"/></g></g><g class="color000000 svgShape"><circle cx="2679.6" cy="1519.4" r="145.1" fill="#404240" class="color414042 svgShape" transform="rotate(-45.001 2679.58 1519.464)"/><circle cx="2669.3" cy="1514.3" r="145.1" fill="#585b59" class="color58595b svgShape" transform="rotate(-45.001 2669.252 1514.3)"/><g class="color000000 svgShape"><path fill="#fff" d="M2591.4,1575.2c-0.7,0-1.5-0.2-2.1-0.6c-1.4-0.9-2.1-2.6-1.7-4.2l7.1-30.8
							c-13.4-10.6-20.8-24.5-20.8-39.4c0-31.4,33.6-57,74.8-57c41.2,0,74.7,25.6,74.7,57c0,31.4-33.5,57-74.7,57
							c-9.5,0-18.8-1.3-27.5-4l-27.3,21.3C2593.1,1574.9,2592.2,1575.2,2591.4,1575.2z M2648.6,1451c-36.9,0-66.9,22-66.9,49.1
							c0,13.1,7,25.4,19.6,34.7c1.3,0.9,1.9,2.5,1.5,4.1l-5.2,22.5l20.2-15.7c1-0.8,2.5-1,3.7-0.6c8.5,2.8,17.6,4.2,27.1,4.2
							c36.9,0,66.9-22,66.9-49.1C2715.5,1473,2685.5,1451,2648.6,1451z" class="colorffffff svgShape"/><path fill="#fff" d="M2749.1,1583.5c-0.9,0-1.7-0.3-2.4-0.8l-23.2-18.1c-7.5,2.2-15.4,3.4-23.5,3.4
							c-15.6,0-30.7-4.3-42.5-12.1c-1.8-1.2-2.3-3.7-1.1-5.5c1.2-1.8,3.7-2.3,5.5-1.1c10.5,7,24,10.8,38.1,10.8
							c8,0,15.8-1.2,23.1-3.6c1.3-0.4,2.6-0.2,3.7,0.6l16.1,12.5l-4.1-17.8c-0.4-1.5,0.2-3.1,1.5-4.1c10.7-7.8,16.7-18.2,16.7-29.3
							c0-20.1-20.4-37.7-47.4-41c-2.2-0.3-3.7-2.2-3.4-4.4c0.3-2.2,2.3-3.7,4.4-3.4c31.5,3.9,54.3,24.4,54.3,48.8
							c0,12.9-6.3,24.9-17.8,34l6,26.1c0.4,1.6-0.3,3.3-1.7,4.2C2750.5,1583.3,2749.8,1583.5,2749.1,1583.5z" class="colorffffff svgShape"/><path fill="#fff" d="M2683.3,1492.1h-69.5c-2.2,0-3.9-1.8-3.9-3.9c0-2.2,1.8-3.9,3.9-3.9h69.5c2.2,0,3.9,1.8,3.9,3.9
								C2687.3,1490.3,2685.5,1492.1,2683.3,1492.1z" class="colorffffff svgShape"/><path fill="#fff" d="M2652.8,1515.3h-39c-2.2,0-3.9-1.8-3.9-3.9c0-2.2,1.8-3.9,3.9-3.9h39c2.2,0,3.9,1.8,3.9,3.9
								C2656.8,1513.6,2655,1515.3,2652.8,1515.3z" class="colorffffff svgShape"/></g></g></g><g fill="#08120a" class="color000000 svgShape"><path fill="#585b59" d="M2206,1245.2l18.4,7.8c-2.8,13.8-7.5,24-14.1,30.7c-6.6,6.7-14.9,10-25,10c-12.5,0-22.8-5.7-30.9-17.2
			c-8.1-11.4-12.1-27.1-12.1-46.9c0-21,4.1-37.3,12.2-48.9c8.1-11.6,18.7-17.4,31.9-17.4c11.5,0,20.9,4.6,28.1,13.7
			c4.3,5.4,7.5,13.1,9.6,23.2l-18.8,6c-1.1-6.5-3.4-11.7-7-15.5c-3.5-3.8-7.8-5.7-12.9-5.7c-7,0-12.7,3.4-17,10.1
			c-4.4,6.7-6.5,17.6-6.5,32.6c0,15.9,2.1,27.3,6.4,34.1c4.3,6.8,9.9,10.1,16.7,10.1c5.1,0,9.4-2.1,13.1-6.4
			C2201.8,1261.2,2204.4,1254.5,2206,1245.2z" class="color58595b svgShape"/><path fill="#585b59" d="M2236.5,1244.6c0-8,1.5-15.8,4.4-23.3c3-7.5,7.1-13.2,12.6-17.2s11.5-5.9,18.2-5.9c10.3,0,18.8,4.5,25.4,13.5
			c6.6,9,9.9,20.3,9.9,34c0,13.8-3.3,25.3-10,34.4c-6.7,9.1-15.1,13.6-25.2,13.6c-6.3,0-12.2-1.9-17.9-5.7c-5.7-3.8-10-9.3-13-16.6
			C2238,1264,2236.5,1255.1,2236.5,1244.6z M2255,1245.9c0,9.1,1.6,16,4.8,20.8c3.2,4.8,7.2,7.2,11.9,7.2c4.7,0,8.7-2.4,11.9-7.2
			c3.2-4.8,4.8-11.8,4.8-21c0-8.9-1.6-15.8-4.8-20.6c-3.2-4.8-7.1-7.2-11.9-7.2c-4.7,0-8.7,2.4-11.9,7.2
			C2256.6,1229.9,2255,1236.9,2255,1245.9z" class="color58595b svgShape"/><path fill="#585b59" d="M2383.2,1291.6h-18.1V1245c0-9.9-0.4-16.2-1.2-19.1c-0.8-2.9-2-5.1-3.8-6.8s-3.8-2.4-6.3-2.4
			c-3.1,0-5.9,1.1-8.4,3.4c-2.5,2.3-4.2,5.3-5.1,9.1c-0.9,3.8-1.4,10.8-1.4,21v41.4H2321v-91.3h16.8v13.4
			c6-10.3,13.5-15.5,22.5-15.5c4,0,7.6,1,10.9,2.9c3.3,1.9,5.8,4.4,7.5,7.4c1.7,3,2.9,6.4,3.5,10.1c0.7,3.8,1,9.2,1,16.3V1291.6z" class="color58595b svgShape"/><path fill="#585b59" d="M2432.8,1200.3v19.3h-12.3v36.8c0,7.5,0.1,11.8,0.4,13c0.2,1.2,0.8,2.3,1.6,3.1c0.8,0.8,1.9,1.2,3.1,1.2
			c1.7,0,4.1-0.8,7.3-2.3l1.5,18.7c-4.2,2.4-9,3.6-14.3,3.6c-3.3,0-6.2-0.7-8.8-2.2c-2.6-1.5-4.5-3.4-5.8-5.7
			c-1.2-2.3-2.1-5.5-2.5-9.4c-0.4-2.8-0.6-8.5-0.6-17v-39.8h-8.3v-19.3h8.3v-18.1l18.1-14.1v32.2H2432.8z" class="color58595b svgShape"/><path fill="#585b59" d="M2458.8,1228.1l-16.4-4c1.8-8.8,5-15.4,9.5-19.6c4.5-4.2,11.2-6.4,20.1-6.4c8.1,0,14.1,1.3,18,3.8
			c3.9,2.6,6.7,5.8,8.3,9.7c1.6,3.9,2.4,11.1,2.4,21.6l-0.2,28.2c0,8,0.3,13.9,0.9,17.8c0.6,3.8,1.7,7.9,3.2,12.3h-17.9
			c-0.5-1.6-1-4-1.7-7.1c-0.3-1.4-0.5-2.4-0.6-2.8c-3.1,4-6.4,7-9.9,9c-3.5,2-7.3,3-11.2,3c-7,0-12.6-2.5-16.6-7.7
			c-4.1-5.1-6.1-11.6-6.1-19.3c0-5.2,0.9-9.8,2.8-13.8c1.8-4,4.4-7.1,7.7-9.3c3.3-2.1,8.1-4,14.4-5.6c8.4-2.1,14.3-4.1,17.5-5.9
			v-2.4c0-4.6-0.9-8-2.6-9.9c-1.7-2-4.9-3-9.7-3c-3.2,0-5.7,0.8-7.5,2.5C2461.4,1220.9,2460,1223.9,2458.8,1228.1z M2483,1247.7
			c-2.3,1-6,2.3-11,3.7s-8.3,2.8-9.8,4.2c-2.4,2.2-3.5,5.1-3.5,8.5c0,3.4,0.9,6.3,2.8,8.8c1.9,2.5,4.3,3.7,7.2,3.7
			c3.3,0,6.4-1.4,9.3-4.3c2.2-2.2,3.6-4.8,4.3-8c0.5-2.1,0.7-6,0.7-11.8V1247.7z" class="color58595b svgShape"/><path fill="#585b59" d="M2578.1,1227.3l-17.8,4.3c-0.6-4.8-2-8.3-4.1-10.7c-2.1-2.4-4.9-3.6-8.3-3.6c-4.5,0-8.1,2.1-10.8,6.2
			c-2.7,4.2-4,11.1-4,20.9c0,10.8,1.4,18.5,4.1,23c2.7,4.5,6.4,6.7,11,6.7c3.4,0,6.2-1.3,8.4-3.9c2.2-2.6,3.7-7.1,4.6-13.5l17.7,4
			c-1.8,10.9-5.4,19.1-10.6,24.7c-5.2,5.6-12.2,8.3-21,8.3c-10,0-17.9-4.2-23.9-12.6c-5.9-8.4-8.9-20.1-8.9-35
			c0-15.1,3-26.8,8.9-35.2c6-8.4,14-12.6,24.2-12.6c8.3,0,14.9,2.4,19.8,7.2C2572.4,1210.2,2575.9,1217.5,2578.1,1227.3z" class="color58595b svgShape"/><path fill="#585b59" d="M2623.1,1200.3v19.3h-12.3v36.8c0,7.5,0.1,11.8,0.4,13c0.2,1.2,0.8,2.3,1.6,3.1c0.8,0.8,1.9,1.2,3.1,1.2
			c1.7,0,4.1-0.8,7.3-2.3l1.5,18.7c-4.2,2.4-9,3.6-14.3,3.6c-3.3,0-6.2-0.7-8.8-2.2c-2.6-1.5-4.5-3.4-5.8-5.7
			c-1.2-2.3-2.1-5.5-2.5-9.4c-0.4-2.8-0.6-8.5-0.6-17v-39.8h-8.3v-19.3h8.3v-18.1l18.1-14.1v32.2H2623.1z" class="color58595b svgShape"/><path fill="#585b59" d="M2672.2,1165.5h19v68.3c0,10.8,0.2,17.9,0.7,21.1c0.8,5.2,2.8,9.3,5.8,12.4c3.1,3.1,7.3,4.7,12.6,4.7
			c5.4,0,9.5-1.5,12.2-4.4c2.7-3,4.4-6.6,4.9-10.9c0.6-4.3,0.8-11.4,0.8-21.4v-69.7h19v66.2c0,15.1-0.5,25.8-1.5,32.1
			c-1,6.3-2.9,11.5-5.7,15.8c-2.8,4.3-6.5,7.7-11.1,10.3c-4.6,2.6-10.7,3.8-18.1,3.8c-9,0-15.8-1.4-20.5-4.2
			c-4.7-2.8-8.3-6.4-11-10.8c-2.7-4.4-4.5-9.1-5.3-14c-1.2-7.2-1.9-17.9-1.9-32V1165.5z" class="color58595b svgShape"/><path fill="#585b59" d="M2760.9,1265.5l18.1-3.7c0.8,4.7,2.3,8.3,4.7,10.7c2.4,2.4,5.7,3.7,9.9,3.7c4.7,0,8.2-1.1,10.5-3.4
			c1.6-1.6,2.4-3.8,2.4-6.4c0-1.8-0.4-3.4-1.3-4.6c-0.9-1.1-2.9-2.2-6-3.2c-14.6-4.3-23.8-8.2-27.7-11.8c-5.4-4.9-8.1-11.8-8.1-20.6
			c0-7.9,2.3-14.6,7-19.9c4.7-5.4,11.9-8.1,21.7-8.1c9.3,0,16.3,2,20.8,6.1c4.5,4.1,7.7,10.1,9.4,18.1l-17,4.2
			c-0.7-3.6-2.1-6.3-4.1-8.2c-2-1.9-4.9-2.8-8.7-2.8c-4.8,0-8.2,0.9-10.2,2.7c-1.4,1.3-2.1,2.9-2.1,4.9c0,1.7,0.6,3.2,1.8,4.4
			c1.6,1.6,7.3,3.9,16.9,6.8c9.6,2.9,16.3,6.5,20.2,10.7c3.8,4.3,5.7,10.3,5.7,18c0,8.4-2.6,15.6-7.8,21.6c-5.2,6-13,9-23.2,9
			c-9.3,0-16.7-2.5-22.1-7.6C2766.1,1281,2762.6,1274.2,2760.9,1265.5z" class="color58595b svgShape"/></g></svg>